<svg xmlns="http://www.w3.org/2000/svg" width="30" height="30" viewBox="0 0 30 30">
    <path data-name="패스 456" d="m16.1 14.699 7.212 7.21a.871.871 0 0 1-1.231 1.231l-7.825-7.825a.87.87 0 0 1 0-1.231l7.825-7.825a.871.871 0 0 1 1.231 1.231z"/>
    <path data-name="패스 558" d="m13.467 14.698-7.212-7.21a.871.871 0 0 1 1.231-1.231l7.825 7.825a.87.87 0 0 1 0 1.231l-7.825 7.825a.871.871 0 0 1-1.231-1.231z"/>
    <path data-name="사각형 407" transform="rotate(180 15 15)" style="fill:none" d="M0 0h30v30H0z"/>
</svg>
